<?xml version="1.0" standalone="no"?>
<!DOCTYPE svg PUBLIC "-//W3C//DTD SVG 20010904//EN"
 "http://www.w3.org/TR/2001/REC-SVG-20010904/DTD/svg10.dtd">
<svg version="1.0" xmlns="http://www.w3.org/2000/svg"
 width="597.000000pt" height="605.000000pt" viewBox="0 0 597.000000 605.000000"
 preserveAspectRatio="xMidYMid meet">
<metadata>
Created by potrace 1.14, written by Peter Selinger 2001-2017
</metadata>
<g transform="translate(0.000000,605.000000) scale(0.100000,-0.100000)"
fill="#2F414B" stroke="none">
<path d="M3664 6040 c-21 -8 -63 -84 -79 -140 -3 -14 -15 -44 -26 -68 -11 -23
-22 -61 -24 -83 -3 -23 -10 -49 -15 -59 -6 -10 -15 -42 -21 -72 -5 -29 -16
-73 -24 -98 -69 -229 -116 -511 -97 -590 8 -34 9 -35 57 -35 48 -1 168 29 191
46 6 5 17 43 24 84 11 61 10 77 0 91 -10 11 -10 18 -3 22 17 11 26 93 14 125
-9 23 -7 49 9 120 44 200 49 224 61 287 7 36 15 70 19 75 13 19 18 55 8 61 -5
3 -7 18 -3 32 3 14 8 57 11 95 4 62 2 73 -17 93 -23 25 -49 29 -85 14z"/>
<path d="M2730 6023 c-42 -16 -50 -34 -49 -117 0 -55 6 -89 16 -105 8 -13 23
-74 33 -136 10 -62 26 -139 34 -171 18 -70 37 -189 67 -419 23 -179 49 -297
65 -302 6 -2 24 10 41 26 24 22 33 41 38 83 4 29 14 61 23 71 22 25 25 39 28
136 1 53 7 86 14 91 7 4 9 13 5 20 -4 6 -18 100 -31 208 -12 109 -30 221 -39
251 -9 30 -15 66 -12 80 3 14 -1 44 -9 66 -7 22 -14 52 -14 68 0 15 -4 27 -9
27 -5 0 -12 15 -15 34 -4 18 -15 41 -27 52 -37 34 -117 52 -159 37z"/>
<path d="M2005 5714 c-12 -3 -34 -15 -50 -28 -27 -22 -30 -29 -29 -83 1 -65
17 -101 108 -243 30 -47 80 -128 111 -180 31 -52 70 -115 86 -140 15 -25 53
-92 84 -150 86 -163 141 -261 158 -278 14 -13 18 -11 37 19 16 26 20 44 15 74
-18 135 -18 135 -1 135 21 0 20 23 -3 88 -11 28 -22 70 -26 91 -4 22 -22 66
-42 98 -19 32 -39 68 -44 81 -5 13 -37 74 -71 135 -34 62 -85 159 -114 217
-62 126 -92 158 -154 164 -25 2 -54 2 -65 0z"/>
<path d="M4310 5388 c-25 -12 -79 -56 -120 -98 -130 -129 -383 -511 -367 -553
3 -8 39 -19 87 -26 108 -18 117 -13 180 108 53 101 83 148 164 259 61 83 146
248 146 282 0 27 -16 50 -34 50 -6 0 -31 -10 -56 -22z"/>
<path d="M1229 5030 c-73 -37 -74 -39 -77 -80 -3 -39 0 -45 44 -85 28 -26 76
-55 118 -72 64 -26 270 -150 446 -269 36 -24 70 -44 76 -44 6 0 19 -9 29 -20
19 -21 19 -21 30 12 7 21 8 48 2 73 -4 22 -8 49 -8 61 0 14 -17 35 -49 60 -48
38 -66 66 -62 92 2 6 -2 12 -8 12 -5 0 -10 6 -10 13 0 7 -12 25 -27 39 -40 37
-292 200 -328 211 -16 6 -46 16 -66 23 -34 12 -40 10 -110 -26z"/>
<path d="M5025 5001 c-119 -62 -179 -99 -192 -120 -7 -12 -39 -28 -76 -39 -36
-11 -88 -37 -119 -60 -30 -22 -87 -56 -127 -77 -159 -79 -417 -264 -547 -390
-41 -40 -86 -76 -100 -79 -22 -6 -144 -108 -152 -128 -2 -4 -29 -26 -60 -48
-46 -32 -571 -556 -698 -696 -29 -32 -54 -44 -54 -26 0 5 -26 25 -57 44 -32
19 -110 68 -173 108 -330 210 -1450 815 -1655 895 -33 13 -102 42 -152 64 -51
22 -110 44 -132 47 -58 9 -64 -8 -68 -217 -6 -241 3 -260 167 -329 113 -48
144 -64 153 -77 4 -7 21 -20 36 -28 58 -30 503 -205 521 -205 27 0 50 -11 50
-24 0 -11 125 -76 146 -76 6 0 19 -9 29 -20 10 -11 25 -20 33 -20 17 0 70 -23
132 -57 25 -13 72 -37 105 -53 33 -15 95 -49 138 -74 43 -26 115 -65 160 -87
45 -23 86 -48 90 -55 4 -8 25 -23 45 -33 20 -10 46 -28 56 -40 11 -12 27 -21
37 -21 35 0 78 -52 94 -112 20 -80 46 -117 171 -243 60 -61 120 -124 134 -140
46 -54 57 -59 84 -42 13 9 37 40 54 69 41 73 74 102 106 94 19 -5 26 -2 31 15
4 12 23 39 42 60 27 29 34 45 30 64 -3 17 1 29 12 35 9 4 25 33 34 64 15 46
28 64 84 113 36 32 79 76 95 98 47 64 400 416 500 498 191 156 547 435 624
489 43 30 137 88 207 128 71 40 157 94 192 120 101 77 207 119 297 120 33 0
43 7 88 61 27 33 50 66 50 73 0 7 -38 70 -84 139 -47 69 -92 142 -102 162 -10
21 -35 50 -57 66 -59 42 -128 39 -222 -10z"/>
<path d="M265 1900 c-163 -54 -263 -204 -253 -379 8 -140 82 -253 207 -314 62
-30 73 -32 176 -32 104 0 114 2 176 32 78 39 140 102 177 181 24 50 27 69 27
162 0 96 -3 110 -29 163 -36 71 -109 140 -184 175 -78 36 -209 41 -297 12z
m249 -160 c108 -74 134 -230 56 -338 -75 -103 -241 -111 -332 -15 -81 85 -77
249 9 329 45 43 81 55 159 52 56 -3 78 -8 108 -28z"/>
<path d="M840 1835 l0 -75 110 0 110 0 0 -290 0 -290 80 0 80 0 0 290 0 290
110 0 110 0 0 75 0 75 -300 0 -300 0 0 -75z"/>
<path d="M1540 1545 l0 -365 80 0 80 0 0 150 0 150 28 0 c23 0 49 -24 161
-150 l134 -150 100 0 100 0 -19 23 c-22 25 -229 252 -286 312 l-38 41 160 173
c88 95 160 175 160 177 0 2 -44 4 -97 3 l-98 0 -124 -145 c-106 -123 -128
-144 -152 -144 l-29 0 0 145 0 145 -80 0 -80 0 0 -365z"/>
<path d="M2310 1546 l0 -366 80 0 80 0 0 110 0 110 87 0 c129 0 196 22 259 85
44 44 54 60 64 111 26 122 -20 226 -125 279 -58 30 -60 30 -252 33 l-193 4 0
-366z m324 214 c59 -13 89 -49 89 -104 0 -81 -54 -116 -178 -116 l-75 0 0 108
c0 60 3 112 7 115 9 10 111 8 157 -3z"/>
<path d="M2990 1545 l0 -365 169 0 c140 0 180 3 233 20 119 37 173 119 166
254 -5 98 -36 148 -123 191 -54 27 -71 30 -172 34 l-113 3 0 114 0 114 -80 0
-80 0 0 -365z m381 -43 c22 -24 29 -42 29 -72 0 -76 -57 -109 -187 -110 l-63
0 0 111 0 111 96 -4 c94 -4 97 -5 125 -36z"/>
<path d="M3670 1545 l0 -365 80 0 80 0 0 365 0 365 -80 0 -80 0 0 -365z"/>
<path d="M3930 1835 l0 -75 110 0 110 0 0 -290 0 -290 80 0 80 0 0 290 0 289
113 3 112 3 0 70 0 70 -302 3 -303 2 0 -75z"/>
<path d="M4791 1888 c-5 -13 -67 -160 -139 -328 -71 -168 -137 -322 -145 -342
l-16 -38 82 0 82 0 30 78 31 77 159 0 159 0 31 -77 30 -78 83 0 c45 0 82 3 81
8 0 4 -69 167 -153 362 l-152 355 -77 3 c-73 3 -78 1 -86 -20z m132 -283 l45
-110 -86 -5 c-48 -3 -90 -3 -94 0 -4 3 13 56 39 118 25 62 47 111 48 110 2 -2
23 -52 48 -113z"/>
<path d="M5540 1894 c-128 -34 -185 -114 -178 -248 4 -90 35 -143 107 -183
l48 -27 -89 -123 c-48 -68 -88 -125 -88 -128 0 -3 42 -5 93 -5 l92 0 79 115
79 115 59 0 58 0 0 -115 0 -115 80 0 80 0 0 365 0 365 -182 -1 c-128 0 -200
-5 -238 -15z m260 -234 l0 -110 -72 0 c-153 1 -208 31 -208 110 0 80 50 107
203 109 l77 1 0 -110z"/>
<path d="M1740 747 c-116 -34 -194 -96 -242 -195 -31 -63 -33 -73 -33 -172 0
-94 3 -111 27 -160 38 -76 99 -137 177 -174 62 -29 74 -31 176 -31 105 0 114
2 177 33 78 38 138 100 177 182 23 48 26 68 26 155 0 89 -3 106 -27 155 -43
87 -90 135 -173 176 -62 31 -85 37 -157 40 -50 2 -101 -1 -128 -9z m195 -156
c115 -52 160 -202 97 -322 -39 -76 -98 -111 -185 -112 -114 -1 -194 67 -218
184 -21 104 33 215 125 255 45 19 134 17 181 -5z"/>
<path d="M2599 746 c-99 -26 -199 -111 -242 -204 -17 -39 -21 -66 -22 -157 0
-105 2 -114 33 -177 37 -77 90 -128 172 -167 49 -23 67 -26 165 -26 124 0 172
15 253 82 l44 36 -52 52 -52 53 -44 -33 c-175 -134 -406 20 -354 235 39 163
220 224 354 119 34 -27 43 -23 99 44 l40 46 -24 21 c-95 80 -243 111 -370 76z"/>
<path d="M3333 750 c-106 -25 -203 -105 -251 -208 -24 -50 -27 -69 -27 -162 0
-95 3 -111 28 -162 36 -73 101 -139 175 -175 52 -26 66 -28 172 -28 106 0 119
2 167 27 29 16 68 42 88 60 l36 31 -52 53 -51 52 -44 -33 c-157 -120 -355 -19
-355 179 0 121 74 213 181 224 70 6 112 -4 168 -42 l48 -32 47 54 c26 29 47
58 47 63 0 18 -106 79 -165 94 -62 16 -158 18 -212 5z"/>
<path d="M800 386 l0 -366 80 0 80 0 0 110 0 110 93 0 c115 0 180 18 236 67
59 50 81 101 81 188 0 84 -21 137 -74 183 -68 59 -92 65 -303 70 l-193 4 0
-366z m360 199 c37 -19 50 -43 50 -92 0 -79 -50 -113 -170 -113 l-80 0 0 110
0 110 85 0 c57 0 96 -5 115 -15z"/>
<path d="M3827 743 c-4 -3 -7 -168 -7 -365 l0 -358 73 0 74 0 169 234 169 234
3 -234 2 -234 80 0 80 0 0 365 0 366 -77 -3 -76 -3 -161 -222 c-89 -122 -164
-223 -168 -223 -5 0 -8 101 -8 225 l0 225 -73 0 c-41 0 -77 -3 -80 -7z"/>
<path d="M4795 736 c-27 -7 -63 -20 -80 -28 -150 -80 -154 -316 -7 -404 l51
-31 -42 -59 c-24 -32 -65 -89 -91 -126 l-48 -68 95 0 95 0 79 112 78 113 63 3
62 3 0 -116 0 -115 80 0 80 0 0 365 0 365 -182 -1 c-109 0 -203 -6 -233 -13z
m253 -238 l-3 -103 -107 0 c-93 0 -110 3 -135 21 -36 27 -51 81 -33 124 20 48
51 59 173 60 l108 0 -3 -102z"/>
</g>
</svg>
